<svg width="727" height="230" viewBox="0 0 727 230" fill="none" xmlns="http://www.w3.org/2000/svg">
<path fill-rule="evenodd" clip-rule="evenodd" d="M428.5 70.5C428.5 57.133 436.249 52.8821 440.866 50.3491C441.085 50.2291 441.297 50.113 441.5 50H330.5C318.5 50 317.5 47.5 317.5 39V27.5C317.5 9.5 331.5 1 348 0H479.5C487.5 0 490.5 3 490.5 11V148C490.5 194 453.5 227.5 397.5 227.5C359.5 227.5 305.5 212 301.5 161.5C299 147 307.5 147 307.5 147L359.5 148C362.758 150.947 364.283 155.05 365.882 159.352C369.437 168.916 373.359 179.465 397.5 180.5C412 179.5 428.5 172.5 428.5 141V70.5ZM170.826 78.4326H170.826H170.826C172.302 78.4673 173.695 78.5 175 78.5V65.5C175 58.5 168 52.5 161 50.5H275C278 50.5 282.5 48 282.5 43V8.5C282.5 4.5 279 1 275 1H143.5C125 1 116.5 18 116.5 27.5V96.5C139.337 77.6929 158.164 78.1352 170.826 78.4326ZM91 130C94.8959 129.862 98.7501 125.015 103.92 118.513C116.667 102.484 137.412 76.3958 186.5 85.9999C178.575 92.0959 172.302 100.339 165.902 108.749C156.553 121.033 146.934 133.674 131.5 140.5C131.5 140.5 147 149.5 153.5 157.5C133.795 157.5 124.391 162.413 115.831 166.886C109.187 170.357 103.051 173.563 93 174C73.9615 173.108 59.3477 164.782 46.8419 157.657C38.3278 152.807 30.7909 148.513 23.5 147.5C27.008 139.607 32.4388 136.713 36.0826 134.772L36.0832 134.772C36.594 134.499 37.0697 134.246 37.5 134C32.7113 128.593 29.2111 123.998 26.0707 119.875C19.0461 110.653 13.821 103.793 0 95.5C36.9416 88.659 59.6092 107.547 74.5662 120.011C81.4729 125.766 86.7354 130.151 91 130ZM117 218.5V173C127.475 165.748 138.815 164.556 147.069 163.688C154.18 162.941 159 162.434 159 158.5C159 153.5 150 146 142 140.5C153.753 134.329 163.089 121.424 170.617 111.019C175.898 103.719 180.289 97.6493 184 96H256C259 96 261.5 98.5 261.5 102V138C261.5 143 257 146 252.5 146H162C170.5 150 175 154 175 161.5V218.5C175 222 173 224.5 169.5 224.5H122C118 224.5 117 220.5 117 218.5ZM592 10V148.5C592 148.5 594 180 629 180C664 180 666 148.5 666 148.5V27C666 9 683.5 2 689 2H716.5C721.5 2 726.5 3 726.5 10V148.5C726.5 179.5 705 229.5 628 229.5C553.5 229.5 532.5 184 532.5 148.5V27C532.5 10 550 2 557.5 2H583.5C588.5 2 592 4.5 592 10Z" fill="#99000a"/>
</svg>
